<mxfile host="app.diagrams.net" modified="2021-02-01T09:01:51.644Z" agent="5.0 (Windows NT 10.0; WOW64) AppleWebKit/537.36 (KHTML, like Gecko) Chrome/88.0.4324.104 Safari/537.36" etag="h2G_YY8_VdKVUBlA4oMw" version="14.2.9" type="github">
  <diagram id="i3r9SRX2nsmY7t9XxCH-" name="Page-1">
    <mxGraphModel dx="1038" dy="524" grid="1" gridSize="10" guides="1" tooltips="1" connect="1" arrows="1" fold="1" page="1" pageScale="1" pageWidth="827" pageHeight="1169" math="0" shadow="0">
      <root>
        <mxCell id="0" />
        <mxCell id="1" parent="0" />
        <mxCell id="5iP_pvDfPiyhX8K3JkT0-7" style="edgeStyle=orthogonalEdgeStyle;rounded=0;orthogonalLoop=1;jettySize=auto;html=1;exitX=1;exitY=0.5;exitDx=0;exitDy=0;entryX=0;entryY=0.5;entryDx=0;entryDy=0;" parent="1" source="5iP_pvDfPiyhX8K3JkT0-1" target="5iP_pvDfPiyhX8K3JkT0-6" edge="1">
          <mxGeometry relative="1" as="geometry" />
        </mxCell>
        <mxCell id="5iP_pvDfPiyhX8K3JkT0-44" style="edgeStyle=orthogonalEdgeStyle;rounded=0;orthogonalLoop=1;jettySize=auto;html=1;exitX=1;exitY=0.5;exitDx=0;exitDy=0;entryX=0.5;entryY=0;entryDx=0;entryDy=0;" parent="1" source="5iP_pvDfPiyhX8K3JkT0-1" target="5iP_pvDfPiyhX8K3JkT0-4" edge="1">
          <mxGeometry relative="1" as="geometry" />
        </mxCell>
        <mxCell id="5iP_pvDfPiyhX8K3JkT0-47" value="新增/更新事件" style="edgeLabel;html=1;align=center;verticalAlign=middle;resizable=0;points=[];" parent="5iP_pvDfPiyhX8K3JkT0-44" vertex="1" connectable="0">
          <mxGeometry x="0.0851" y="1" relative="1" as="geometry">
            <mxPoint x="-1.02" y="8.83" as="offset" />
          </mxGeometry>
        </mxCell>
        <mxCell id="5iP_pvDfPiyhX8K3JkT0-1" value="cmdb api" style="rounded=1;whiteSpace=wrap;html=1;" parent="1" vertex="1">
          <mxGeometry x="200" y="180" width="90" height="40" as="geometry" />
        </mxCell>
        <mxCell id="5iP_pvDfPiyhX8K3JkT0-3" style="edgeStyle=orthogonalEdgeStyle;rounded=0;orthogonalLoop=1;jettySize=auto;html=1;exitX=1;exitY=0.5;exitDx=0;exitDy=0;entryX=0;entryY=0.5;entryDx=0;entryDy=0;" parent="1" source="5iP_pvDfPiyhX8K3JkT0-2" target="5iP_pvDfPiyhX8K3JkT0-1" edge="1">
          <mxGeometry relative="1" as="geometry">
            <Array as="points">
              <mxPoint x="170" y="200" />
              <mxPoint x="170" y="200" />
            </Array>
          </mxGeometry>
        </mxCell>
        <mxCell id="5iP_pvDfPiyhX8K3JkT0-9" value="通知" style="edgeLabel;html=1;align=center;verticalAlign=middle;resizable=0;points=[];" parent="5iP_pvDfPiyhX8K3JkT0-3" vertex="1" connectable="0">
          <mxGeometry x="-0.3276" y="2" relative="1" as="geometry">
            <mxPoint as="offset" />
          </mxGeometry>
        </mxCell>
        <mxCell id="5iP_pvDfPiyhX8K3JkT0-2" value="事件监控服务" style="rounded=1;whiteSpace=wrap;html=1;" parent="1" vertex="1">
          <mxGeometry x="40" y="180" width="80" height="40" as="geometry" />
        </mxCell>
        <mxCell id="5iP_pvDfPiyhX8K3JkT0-4" value="记录事件" style="rounded=1;whiteSpace=wrap;html=1;" parent="1" vertex="1">
          <mxGeometry x="270" y="260" width="90" height="40" as="geometry" />
        </mxCell>
        <mxCell id="5iP_pvDfPiyhX8K3JkT0-11" style="edgeStyle=orthogonalEdgeStyle;rounded=0;orthogonalLoop=1;jettySize=auto;html=1;exitX=0.5;exitY=1;exitDx=0;exitDy=0;entryX=0.5;entryY=0;entryDx=0;entryDy=0;entryPerimeter=0;" parent="1" source="5iP_pvDfPiyhX8K3JkT0-6" target="5iP_pvDfPiyhX8K3JkT0-10" edge="1">
          <mxGeometry relative="1" as="geometry">
            <Array as="points">
              <mxPoint x="430" y="250" />
              <mxPoint x="430" y="250" />
            </Array>
          </mxGeometry>
        </mxCell>
        <mxCell id="5iP_pvDfPiyhX8K3JkT0-18" style="edgeStyle=orthogonalEdgeStyle;rounded=0;orthogonalLoop=1;jettySize=auto;html=1;exitX=0.5;exitY=0;exitDx=0;exitDy=0;entryX=0.5;entryY=1;entryDx=0;entryDy=0;" parent="1" source="5iP_pvDfPiyhX8K3JkT0-6" target="5iP_pvDfPiyhX8K3JkT0-15" edge="1">
          <mxGeometry relative="1" as="geometry" />
        </mxCell>
        <mxCell id="5iP_pvDfPiyhX8K3JkT0-20" style="edgeStyle=orthogonalEdgeStyle;rounded=0;orthogonalLoop=1;jettySize=auto;html=1;exitX=1;exitY=0.5;exitDx=0;exitDy=0;entryX=0;entryY=0.5;entryDx=0;entryDy=0;" parent="1" source="5iP_pvDfPiyhX8K3JkT0-6" target="5iP_pvDfPiyhX8K3JkT0-14" edge="1">
          <mxGeometry relative="1" as="geometry">
            <Array as="points">
              <mxPoint x="510" y="200" />
              <mxPoint x="510" y="200" />
            </Array>
          </mxGeometry>
        </mxCell>
        <mxCell id="5iP_pvDfPiyhX8K3JkT0-21" value="生成" style="edgeLabel;html=1;align=center;verticalAlign=middle;resizable=0;points=[];" parent="5iP_pvDfPiyhX8K3JkT0-20" vertex="1" connectable="0">
          <mxGeometry x="-0.1923" relative="1" as="geometry">
            <mxPoint as="offset" />
          </mxGeometry>
        </mxCell>
        <mxCell id="5iP_pvDfPiyhX8K3JkT0-6" value="scm" style="rounded=1;whiteSpace=wrap;html=1;" parent="1" vertex="1">
          <mxGeometry x="390" y="180" width="80" height="40" as="geometry" />
        </mxCell>
        <mxCell id="5iP_pvDfPiyhX8K3JkT0-8" value="创建事件任务" style="text;html=1;align=center;verticalAlign=middle;resizable=0;points=[];autosize=1;" parent="1" vertex="1">
          <mxGeometry x="290" y="170" width="90" height="20" as="geometry" />
        </mxCell>
        <mxCell id="5iP_pvDfPiyhX8K3JkT0-16" style="edgeStyle=orthogonalEdgeStyle;rounded=0;orthogonalLoop=1;jettySize=auto;html=1;exitX=1;exitY=0.3333333333333333;exitDx=0;exitDy=0;exitPerimeter=0;entryX=0.75;entryY=1;entryDx=0;entryDy=0;" parent="1" source="5iP_pvDfPiyhX8K3JkT0-10" target="5iP_pvDfPiyhX8K3JkT0-6" edge="1">
          <mxGeometry relative="1" as="geometry">
            <mxPoint x="460" y="230" as="targetPoint" />
            <Array as="points">
              <mxPoint x="450" y="313" />
            </Array>
          </mxGeometry>
        </mxCell>
        <mxCell id="5iP_pvDfPiyhX8K3JkT0-17" value="填写信息，审核" style="edgeLabel;html=1;align=center;verticalAlign=middle;resizable=0;points=[];" parent="5iP_pvDfPiyhX8K3JkT0-16" vertex="1" connectable="0">
          <mxGeometry x="-0.2222" y="3" relative="1" as="geometry">
            <mxPoint as="offset" />
          </mxGeometry>
        </mxCell>
        <mxCell id="5iP_pvDfPiyhX8K3JkT0-10" value="运维、业务方" style="shape=umlActor;verticalLabelPosition=bottom;verticalAlign=top;html=1;outlineConnect=0;" parent="1" vertex="1">
          <mxGeometry x="415" y="300" width="30" height="40" as="geometry" />
        </mxCell>
        <mxCell id="5iP_pvDfPiyhX8K3JkT0-12" value="通知" style="text;html=1;align=center;verticalAlign=middle;resizable=0;points=[];autosize=1;" parent="1" vertex="1">
          <mxGeometry x="415" y="250" width="40" height="20" as="geometry" />
        </mxCell>
        <mxCell id="5iP_pvDfPiyhX8K3JkT0-23" style="edgeStyle=orthogonalEdgeStyle;rounded=0;orthogonalLoop=1;jettySize=auto;html=1;exitX=0.5;exitY=1;exitDx=0;exitDy=0;entryX=0.5;entryY=0;entryDx=0;entryDy=0;" parent="1" source="5iP_pvDfPiyhX8K3JkT0-14" target="5iP_pvDfPiyhX8K3JkT0-22" edge="1">
          <mxGeometry relative="1" as="geometry" />
        </mxCell>
        <mxCell id="5iP_pvDfPiyhX8K3JkT0-14" value="任务处理流" style="shape=step;perimeter=stepPerimeter;whiteSpace=wrap;html=1;fixedSize=1;" parent="1" vertex="1">
          <mxGeometry x="540" y="177.5" width="90" height="45" as="geometry" />
        </mxCell>
        <mxCell id="5iP_pvDfPiyhX8K3JkT0-19" style="edgeStyle=orthogonalEdgeStyle;rounded=0;orthogonalLoop=1;jettySize=auto;html=1;entryX=0.5;entryY=0;entryDx=0;entryDy=0;" parent="1" source="5iP_pvDfPiyhX8K3JkT0-15" target="5iP_pvDfPiyhX8K3JkT0-6" edge="1">
          <mxGeometry relative="1" as="geometry" />
        </mxCell>
        <mxCell id="5iP_pvDfPiyhX8K3JkT0-15" value="工单审批流" style="ellipse;whiteSpace=wrap;html=1;" parent="1" vertex="1">
          <mxGeometry x="385" y="40" width="90" height="40" as="geometry" />
        </mxCell>
        <mxCell id="5iP_pvDfPiyhX8K3JkT0-26" style="edgeStyle=orthogonalEdgeStyle;rounded=0;orthogonalLoop=1;jettySize=auto;html=1;exitX=0.5;exitY=1;exitDx=0;exitDy=0;entryX=0.5;entryY=0;entryDx=0;entryDy=0;" parent="1" source="5iP_pvDfPiyhX8K3JkT0-22" target="5iP_pvDfPiyhX8K3JkT0-25" edge="1">
          <mxGeometry relative="1" as="geometry" />
        </mxCell>
        <mxCell id="5iP_pvDfPiyhX8K3JkT0-22" value="重启之前操作" style="rounded=1;whiteSpace=wrap;html=1;" parent="1" vertex="1">
          <mxGeometry x="542.5" y="280" width="85" height="40" as="geometry" />
        </mxCell>
        <mxCell id="5iP_pvDfPiyhX8K3JkT0-29" style="edgeStyle=orthogonalEdgeStyle;rounded=0;orthogonalLoop=1;jettySize=auto;html=1;exitX=1;exitY=0.5;exitDx=0;exitDy=0;entryX=1;entryY=0.5;entryDx=0;entryDy=0;" parent="1" source="5iP_pvDfPiyhX8K3JkT0-25" target="5iP_pvDfPiyhX8K3JkT0-25" edge="1">
          <mxGeometry relative="1" as="geometry" />
        </mxCell>
        <mxCell id="5iP_pvDfPiyhX8K3JkT0-33" style="edgeStyle=orthogonalEdgeStyle;rounded=0;orthogonalLoop=1;jettySize=auto;html=1;exitX=0.5;exitY=1;exitDx=0;exitDy=0;entryX=0.5;entryY=0;entryDx=0;entryDy=0;" parent="1" source="5iP_pvDfPiyhX8K3JkT0-25" target="5iP_pvDfPiyhX8K3JkT0-32" edge="1">
          <mxGeometry relative="1" as="geometry" />
        </mxCell>
        <mxCell id="5iP_pvDfPiyhX8K3JkT0-34" style="edgeStyle=orthogonalEdgeStyle;rounded=0;orthogonalLoop=1;jettySize=auto;html=1;exitX=1;exitY=0.5;exitDx=0;exitDy=0;entryX=0;entryY=0.5;entryDx=0;entryDy=0;" parent="1" source="5iP_pvDfPiyhX8K3JkT0-25" target="5iP_pvDfPiyhX8K3JkT0-28" edge="1">
          <mxGeometry relative="1" as="geometry">
            <Array as="points">
              <mxPoint x="629" y="410" />
              <mxPoint x="629" y="410" />
            </Array>
          </mxGeometry>
        </mxCell>
        <mxCell id="5iP_pvDfPiyhX8K3JkT0-37" value="调用api" style="edgeLabel;html=1;align=center;verticalAlign=middle;resizable=0;points=[];" parent="5iP_pvDfPiyhX8K3JkT0-34" vertex="1" connectable="0">
          <mxGeometry x="-0.2467" y="1" relative="1" as="geometry">
            <mxPoint as="offset" />
          </mxGeometry>
        </mxCell>
        <mxCell id="5iP_pvDfPiyhX8K3JkT0-25" value="重启" style="rounded=1;whiteSpace=wrap;html=1;" parent="1" vertex="1">
          <mxGeometry x="541.25" y="390" width="87.5" height="40" as="geometry" />
        </mxCell>
        <mxCell id="5iP_pvDfPiyhX8K3JkT0-27" value="阿里云" style="ellipse;shape=cloud;whiteSpace=wrap;html=1;" parent="1" vertex="1">
          <mxGeometry x="700" y="320" width="80" height="40" as="geometry" />
        </mxCell>
        <mxCell id="5iP_pvDfPiyhX8K3JkT0-30" style="edgeStyle=orthogonalEdgeStyle;rounded=0;orthogonalLoop=1;jettySize=auto;html=1;exitX=0.5;exitY=0;exitDx=0;exitDy=0;entryX=0.55;entryY=0.95;entryDx=0;entryDy=0;entryPerimeter=0;" parent="1" source="5iP_pvDfPiyhX8K3JkT0-28" target="5iP_pvDfPiyhX8K3JkT0-27" edge="1">
          <mxGeometry relative="1" as="geometry" />
        </mxCell>
        <mxCell id="5iP_pvDfPiyhX8K3JkT0-28" value="COPS" style="rounded=1;whiteSpace=wrap;html=1;" parent="1" vertex="1">
          <mxGeometry x="700" y="390" width="80" height="40" as="geometry" />
        </mxCell>
        <mxCell id="5iP_pvDfPiyhX8K3JkT0-39" style="edgeStyle=orthogonalEdgeStyle;rounded=0;orthogonalLoop=1;jettySize=auto;html=1;exitX=0;exitY=0.5;exitDx=0;exitDy=0;" parent="1" source="5iP_pvDfPiyhX8K3JkT0-32" edge="1">
          <mxGeometry relative="1" as="geometry">
            <mxPoint x="430" y="360" as="targetPoint" />
          </mxGeometry>
        </mxCell>
        <mxCell id="5iP_pvDfPiyhX8K3JkT0-32" value="重启之后操作" style="rounded=1;whiteSpace=wrap;html=1;" parent="1" vertex="1">
          <mxGeometry x="540" y="490" width="87.5" height="40" as="geometry" />
        </mxCell>
        <mxCell id="5iP_pvDfPiyhX8K3JkT0-35" style="edgeStyle=orthogonalEdgeStyle;rounded=0;orthogonalLoop=1;jettySize=auto;html=1;exitX=0;exitY=0.5;exitDx=0;exitDy=0;entryX=1;entryY=0.75;entryDx=0;entryDy=0;" parent="1" source="5iP_pvDfPiyhX8K3JkT0-28" target="5iP_pvDfPiyhX8K3JkT0-25" edge="1">
          <mxGeometry relative="1" as="geometry">
            <mxPoint x="638.75" y="420" as="sourcePoint" />
            <mxPoint x="680" y="520" as="targetPoint" />
            <Array as="points">
              <mxPoint x="700" y="420" />
            </Array>
          </mxGeometry>
        </mxCell>
        <mxCell id="5iP_pvDfPiyhX8K3JkT0-38" value="回调通知" style="edgeLabel;html=1;align=center;verticalAlign=middle;resizable=0;points=[];" parent="5iP_pvDfPiyhX8K3JkT0-35" vertex="1" connectable="0">
          <mxGeometry x="-0.051" relative="1" as="geometry">
            <mxPoint as="offset" />
          </mxGeometry>
        </mxCell>
        <mxCell id="5iP_pvDfPiyhX8K3JkT0-40" value="通知" style="text;html=1;align=center;verticalAlign=middle;resizable=0;points=[];autosize=1;" parent="1" vertex="1">
          <mxGeometry x="410" y="440" width="40" height="20" as="geometry" />
        </mxCell>
        <mxCell id="5iP_pvDfPiyhX8K3JkT0-43" style="edgeStyle=orthogonalEdgeStyle;rounded=0;orthogonalLoop=1;jettySize=auto;html=1;exitX=0.5;exitY=1;exitDx=0;exitDy=0;" parent="1" source="5iP_pvDfPiyhX8K3JkT0-4" target="5iP_pvDfPiyhX8K3JkT0-4" edge="1">
          <mxGeometry relative="1" as="geometry" />
        </mxCell>
        <mxCell id="5iP_pvDfPiyhX8K3JkT0-45" style="edgeStyle=orthogonalEdgeStyle;rounded=0;orthogonalLoop=1;jettySize=auto;html=1;entryX=0.5;entryY=1;entryDx=0;entryDy=0;" parent="1" target="5iP_pvDfPiyhX8K3JkT0-1" edge="1">
          <mxGeometry relative="1" as="geometry">
            <mxPoint x="540" y="510" as="sourcePoint" />
            <mxPoint x="440" y="370" as="targetPoint" />
          </mxGeometry>
        </mxCell>
        <mxCell id="5iP_pvDfPiyhX8K3JkT0-46" value="通知事件处理结果" style="edgeLabel;html=1;align=center;verticalAlign=middle;resizable=0;points=[];" parent="5iP_pvDfPiyhX8K3JkT0-45" vertex="1" connectable="0">
          <mxGeometry x="0.5812" y="3" relative="1" as="geometry">
            <mxPoint as="offset" />
          </mxGeometry>
        </mxCell>
      </root>
    </mxGraphModel>
  </diagram>
</mxfile>
